<svg xmlns="http://www.w3.org/2000/svg" id="Layer_2" data-name="Layer 2" viewBox="0 0 111.21 36.68"><defs><style>      .cls-1 {        fill: #fff;        stroke-width: 0px;      }    </style></defs><g id="Layer_1-2" data-name="Layer 1"><g><path class="cls-1" d="M13.88,36.6s1.34-1.59,1.34-3.4v-15.17H7.16v15.26c.04,1.77,1.34,3.32,1.34,3.32H0s1.38-1.59,1.38-3.4V5.22C1.25,3.53.04,2.11.04,2.11h8.45s-1.29,1.55-1.34,3.32v10.65h8.06V5.22c-.13-1.68-1.34-3.1-1.34-3.1h8.49s-1.34,1.55-1.38,3.32v27.85c.04,1.77,1.38,3.32,1.38,3.32h-8.49Z"></path><path class="cls-1" d="M42.64,23.97c0,7.03-3.36,12.72-9.31,12.72s-9.22-5.69-9.22-12.72,3.32-12.76,9.22-12.76,9.31,5.69,9.31,12.76ZM36.69,23.45c-.69-5.3-2.2-10.04-4.66-9.66-2.46.34-2.67,5.39-1.98,10.65.65,5.3,2.16,10.04,4.61,9.7,2.5-.39,2.72-5.43,2.03-10.69Z"></path><path class="cls-1" d="M74.52,11.38s-1.47,1.29-2.76,5.3c0-.04-4.05,12.76-6.38,19.91h-3.32l-3.66-11.68c-1.25,3.88-2.71,8.36-3.75,11.68h-3.32l-6.51-20.52c-1.21-3.54-2.54-4.7-2.54-4.7h8.58s-1.21,1.77,0,5.65l4.01,12.5,2.5-7.8-1.81-5.65c-1.21-3.54-2.5-4.7-2.5-4.7h8.58s-1.21,1.77.04,5.65l3.92,12.5,4.09-12.67c1.12-3.75,0-5.47,0-5.47h4.83Z"></path><path class="cls-1" d="M74.18,24.18c0-8.92,4.48-12.89,9.14-12.89,3.19,0,6.47,1.85,8.36,5.22l-10.3,11.08c1.16,3.1,3.23,5.39,6.51,5.39,1.98,0,3.23-.95,3.23-.95-.26.65-1.51,4.57-6.98,4.57-4.78,0-9.96-3.96-9.96-12.41ZM80.17,19.83c0,2.03.17,4.18.69,6.12,1.64-2.07,3.97-5.13,5.73-7.37-.82-2.24-2.2-4.83-3.88-4.83-2.28,0-2.54,3.62-2.54,6.08Z"></path><path class="cls-1" d="M93.91,7.5c0-2.37-.91-4.05-.91-4.05l6.68-3.45v33.28c.04,1.81,1.38,3.32,1.38,3.32h-8.49s1.34-1.55,1.34-3.36V7.5Z"></path><path class="cls-1" d="M104.05,7.5c0-2.37-.91-4.05-.91-4.05l6.68-3.45v33.28c.04,1.81,1.38,3.32,1.38,3.32h-8.49s1.34-1.55,1.34-3.36V7.5Z"></path></g></g></svg>